<?xml version="1.0" encoding="UTF-8"?>
<svg xmlns="http://www.w3.org/2000/svg" xmlns:xlink="http://www.w3.org/1999/xlink" viewBox="0 0 24 24" width="24px" height="24px">
<g id="surface56430608">
<path style="fill-rule:nonzero;fill:rgb(0%,0%,0%);fill-opacity:1;stroke-width:10;stroke-linecap:butt;stroke-linejoin:round;stroke:rgb(80.000001%,80.000001%,80.000001%);stroke-opacity:1;stroke-miterlimit:10;" d="M 102.737628 14.339258 L 106.233273 32.40997 C 112.158097 34.661403 117.579311 37.742312 122.348794 41.652695 L 139.708527 35.668623 L 156.446154 64.641011 L 142.522819 76.757276 C 143.056053 80.045553 143.32267 83.067213 143.32267 86.000001 C 143.32267 88.932788 143.056053 91.954448 142.522819 95.242726 L 156.41653 107.35899 L 139.708527 136.331378 L 122.31917 130.317682 C 117.579311 134.228065 112.158097 137.338598 106.233273 139.590031 L 102.737628 157.660743 L 69.262374 157.660743 L 65.766728 139.590031 C 59.841904 137.338598 54.42069 134.257689 49.651207 130.347306 L 32.291474 136.331378 L 15.553847 107.35899 L 29.477183 95.27235 L 29.477183 95.242726 C 28.943949 91.954448 28.677332 88.932788 28.677332 86.000001 C 28.677332 83.067213 28.943949 80.045553 29.477183 76.757276 L 15.553847 64.641011 L 32.291474 35.668623 L 49.680831 41.68232 C 54.42069 37.771936 59.841904 34.631779 65.766728 32.40997 L 69.262374 14.339258 Z M 78.29773 42.985781 L 70.832452 45.829696 C 66.329586 47.518271 62.271082 49.858576 58.775436 52.732116 L 52.583995 57.827464 L 38.80878 53.087605 L 33.891176 61.589727 L 44.911348 71.158317 L 43.637511 79.038333 C 43.19315 81.734128 42.985781 83.985561 42.985781 86.000001 C 42.985781 88.014441 43.19315 90.265874 43.637511 92.961668 L 43.637511 92.991293 L 44.911348 100.841684 L 33.891176 110.439898 L 38.80878 118.912396 L 52.583995 114.202161 L 58.775436 119.267886 C 62.271082 122.141425 66.329586 124.48173 70.832452 126.170305 L 78.29773 129.014221 L 81.082397 143.32267 L 90.88798 143.32267 L 93.672647 129.014221 L 101.167549 126.170305 C 105.670415 124.48173 109.699295 122.141425 113.224565 119.267886 L 119.416006 114.172537 L 133.191221 118.912396 L 138.108825 110.410274 L 127.088653 100.841684 L 128.36249 92.961668 C 128.806852 90.265874 129.014221 88.014441 129.014221 86.000001 C 129.014221 83.985561 128.806852 81.734128 128.36249 79.038333 L 127.118277 71.158317 L 138.108825 61.560103 L 133.191221 53.087605 L 119.416006 57.79784 L 113.224565 52.732116 C 109.728919 49.858576 105.670415 47.518271 101.167549 45.829696 L 93.702271 42.985781 L 90.917604 28.677332 L 81.082397 28.677332 Z M 114.676147 86.000001 C 114.676147 101.730407 101.730407 114.676147 86.000001 114.676147 C 70.269594 114.676147 57.323854 101.730407 57.323854 86.000001 C 57.323854 70.269594 70.269594 57.323854 86.000001 57.323854 C 101.730407 57.323854 114.676147 70.269594 114.676147 86.000001 Z M 71.661927 86.000001 C 71.661927 93.968888 78.031113 100.338074 86.000001 100.338074 C 93.968888 100.338074 100.338074 93.968888 100.338074 86.000001 C 100.338074 78.031113 93.968888 71.661927 86.000001 71.661927 C 78.031113 71.661927 71.661927 78.031113 71.661927 86.000001 Z M 71.661927 86.000001 " transform="matrix(0.13186,0,0,0.13186,0.66,0.66)"/>
<path style=" stroke:none;fill-rule:nonzero;fill:rgb(0%,0%,0%);fill-opacity:1;" d="M 9.792969 2.550781 L 9.332031 4.933594 C 8.550781 5.226562 7.835938 5.640625 7.210938 6.15625 L 4.917969 5.363281 L 2.710938 9.183594 L 4.546875 10.78125 C 4.476562 11.214844 4.441406 11.613281 4.441406 12 C 4.441406 12.386719 4.476562 12.785156 4.546875 13.21875 L 4.546875 13.222656 L 2.710938 14.816406 L 4.917969 18.636719 L 7.207031 17.847656 C 7.835938 18.363281 8.550781 18.769531 9.332031 19.066406 L 9.792969 21.449219 L 14.207031 21.449219 L 14.667969 19.066406 C 15.449219 18.769531 16.164062 18.359375 16.789062 17.84375 L 19.082031 18.636719 L 21.285156 14.816406 L 19.453125 13.21875 C 19.523438 12.785156 19.558594 12.386719 19.558594 12 C 19.558594 11.613281 19.523438 11.214844 19.453125 10.78125 L 21.289062 9.183594 L 19.082031 5.363281 L 16.792969 6.152344 C 16.164062 5.636719 15.449219 5.230469 14.667969 4.933594 L 14.207031 2.550781 Z M 11.351562 4.441406 L 12.648438 4.441406 L 13.015625 6.328125 L 14 6.703125 C 14.59375 6.925781 15.128906 7.234375 15.589844 7.613281 L 16.40625 8.28125 L 18.222656 7.660156 L 18.871094 8.777344 L 17.421875 10.042969 L 17.585938 11.082031 C 17.644531 11.4375 17.671875 11.734375 17.671875 12 C 17.671875 12.265625 17.644531 12.5625 17.585938 12.917969 L 17.417969 13.957031 L 18.871094 15.21875 L 18.222656 16.339844 L 16.40625 15.714844 L 15.589844 16.386719 C 15.125 16.765625 14.59375 17.074219 14 17.296875 L 13.011719 17.671875 L 12.644531 19.558594 L 11.351562 19.558594 L 10.984375 17.671875 L 10 17.296875 C 9.40625 17.074219 8.871094 16.765625 8.410156 16.386719 L 7.59375 15.71875 L 5.777344 16.339844 L 5.128906 15.222656 L 6.582031 13.957031 L 6.414062 12.921875 L 6.414062 12.917969 C 6.355469 12.5625 6.328125 12.265625 6.328125 12 C 6.328125 11.734375 6.355469 11.4375 6.414062 11.082031 L 6.582031 10.042969 L 5.128906 8.78125 L 5.777344 7.660156 L 7.59375 8.285156 L 8.410156 7.613281 C 8.871094 7.234375 9.40625 6.925781 10 6.703125 L 10.984375 6.328125 Z M 12 8.21875 C 9.925781 8.21875 8.21875 9.925781 8.21875 12 C 8.21875 14.074219 9.925781 15.78125 12 15.78125 C 14.074219 15.78125 15.78125 14.074219 15.78125 12 C 15.78125 9.925781 14.074219 8.21875 12 8.21875 Z M 12 10.109375 C 13.050781 10.109375 13.890625 10.949219 13.890625 12 C 13.890625 13.050781 13.050781 13.890625 12 13.890625 C 10.949219 13.890625 10.109375 13.050781 10.109375 12 C 10.109375 10.949219 10.949219 10.109375 12 10.109375 Z M 12 10.109375 "/>
</g>
</svg>
